<svg width="39" height="46" viewBox="0 0 39 46" fill="none" xmlns="http://www.w3.org/2000/svg">
<path d="M4.84429 8.8547C1.38972 11.4754 -0.158875 16.3197 1.07206 20.489C1.2706 21.2038 1.54855 21.8788 2.06475 22.4347C2.54124 22.9906 3.25598 23.348 3.97072 23.3083C5.28107 23.1892 6.07523 21.8391 6.63113 20.6479C7.58412 18.6228 8.49739 16.558 9.01359 14.3344C9.37096 12.7063 9.84745 9.9268 8.97388 8.41791C8.10032 6.94873 5.79727 8.10025 4.84429 8.8547Z" fill="black"/>
<path d="M-0.00012207 27.5175C-0.00012207 29.0264 0.0395856 30.4558 0.198416 31.8456C0.198416 31.8853 0.198416 31.8853 0.198416 31.925C0.238124 32.3618 0.317539 32.7589 0.357247 33.1957C0.913154 36.7296 2.14409 39.7474 4.48684 41.8519L4.52655 41.8916C4.92363 42.249 5.40012 42.6064 5.87661 42.924C7.9017 44.2344 10.6018 45.0683 14.1358 45.2668C14.2946 45.2668 14.4535 45.2668 14.6123 45.2668C14.8108 45.2668 14.9697 45.2668 15.1682 45.2668C15.5653 45.2668 15.9624 45.2668 16.3991 45.2271C21.442 44.8697 25.929 41.8122 28.6688 37.1664C28.7085 37.1267 28.7085 37.087 28.7482 37.0473C28.9865 36.6502 29.185 36.2929 29.3835 35.8561C30.3762 33.7913 31.0513 31.4882 31.3292 28.9469C32.441 18.5038 26.0084 8.85488 16.6771 8.25926C7.18696 7.66365 0.119001 15.2478 -0.00012207 27.5175Z" fill="#FFA672"/>
<path d="M2.10449 9.60925C2.26332 10.4431 2.58098 11.1578 3.25601 11.7138C6.79 14.6124 11.1975 11.6343 11.1975 11.6343C11.1975 11.6343 12.4682 13.9771 16.0816 14.9301C19.695 15.9228 22.9907 14.2153 22.9907 14.2153C22.9907 14.2153 21.7995 17.3522 23.626 20.9259C25.4526 24.4599 27.3983 25.6114 27.3983 25.6114C27.3983 25.6114 26.3659 27.6365 28.0336 28.7483C29.9396 30.019 35.578 28.9866 36.7693 24.6982C37.2855 22.8716 37.762 20.0127 37.5634 17.114C37.3649 14.6918 36.6502 12.1505 35.0221 10.1652C34.0692 8.97393 32.8382 7.98124 31.1705 7.22679C29.3439 6.39293 27.2394 5.87673 25.0555 5.51936C23.4672 5.28112 21.8392 5.12229 20.2509 5.08258C14.7712 4.84433 10.046 5.47966 10.046 5.47966C10.046 5.47966 12.627 1.98538 11.277 1.19123C11.2373 1.15152 11.2373 1.15152 11.1975 1.15152C9.72836 0.436784 7.22678 3.49427 7.02824 3.73252C7.06795 3.57369 7.50473 2.54129 7.58415 1.58831C7.66356 0.794153 7.50473 0.0794153 6.67087 0C6.63117 0 6.55175 0 6.47233 0C4.92374 0.317661 1.50888 5.99586 2.10449 9.60925Z" fill="black"/>
<path opacity="0.7" d="M20.1716 5.99587C20.4495 7.02826 21.6408 7.54446 22.7526 7.82242C22.9511 7.86212 23.1497 7.94154 23.2688 8.02096C23.5467 8.21949 23.5467 8.65628 23.4673 8.97394C23.3879 9.2916 23.2291 9.64897 23.2688 9.96663C23.3482 10.7211 24.2218 11.1182 24.9762 11.1182C25.7307 11.1182 26.4851 10.8799 27.2395 10.8005C27.994 10.7608 28.8676 10.999 29.1455 11.6344C29.4632 12.3491 28.9073 13.2624 29.3441 13.9374C29.7014 14.4536 30.4956 14.533 31.1309 14.2948C31.7265 14.0565 32.2427 13.6594 32.7986 13.3418C33.0369 13.1829 33.3545 13.0638 33.6325 13.1035C34.1487 13.1829 34.3869 13.7389 34.506 14.2153C34.7046 14.9301 34.9031 15.6051 35.1414 16.3199C35.3399 16.9552 35.6576 17.7096 36.3326 17.789C36.7694 17.8287 37.2062 17.5905 37.4047 17.2331C37.4444 17.1537 37.4841 17.114 37.4841 17.0346C37.2856 14.6124 36.5708 12.0711 34.9428 10.0858C34.6649 10.1255 34.4266 10.1652 34.1487 10.2446C32.9972 10.5622 32.2427 10.5622 31.4486 9.52985C31.0912 9.09306 30.8132 8.53715 30.3367 8.21949C29.0661 7.26651 26.9219 7.82242 25.7704 6.75031C25.3733 6.39294 25.1747 5.91645 24.9365 5.43996C23.3482 5.20171 21.7202 5.04288 20.1319 5.00317C20.1319 5.32084 20.0922 5.6782 20.1716 5.99587Z" fill="#611B20"/>
<path d="M35.3396 25.2937C36.094 25.4525 36.8088 25.8496 37.3647 26.604C37.9603 27.4379 38.1985 28.51 38.1588 29.5027C38.1588 31.6866 37.1264 33.7911 35.4587 35.2603C34.4263 36.1736 33.0763 37.0074 31.6865 37.1266C30.0982 37.2854 28.8275 36.2927 28.4702 34.7441C28.2716 33.9897 28.3511 33.1558 28.4702 32.4014C28.907 29.1056 31.21 24.5392 35.3396 25.2937Z" fill="#FFA672"/>
<path d="M34.8234 28.3909C34.0689 28.3909 33.4336 28.8674 32.9571 29.3836C31.885 30.6145 31.4085 32.2425 31.5673 33.8705C31.607 34.1088 31.9644 34.1088 31.9644 33.8705C31.885 32.5602 32.3218 31.2101 33.1159 30.1777C33.2748 29.9395 33.4733 29.7012 33.7115 29.5027C33.9498 29.7806 34.1086 30.0983 34.188 30.416C34.2277 30.6145 34.2277 30.7733 34.2277 31.0116C34.2277 31.0513 34.2277 31.1307 34.2277 31.1704C34.2277 31.1307 34.2277 31.2101 34.2277 31.2101C34.2277 31.2498 34.2277 31.2498 34.2277 31.2895C34.188 31.4087 34.1483 31.5278 34.188 31.6469C34.188 31.8454 34.4263 31.9646 34.5851 31.8057C34.7837 31.6072 34.8234 31.2895 34.8631 31.0116C34.9028 30.7733 34.8631 30.4954 34.7837 30.2571C34.6645 29.8601 34.466 29.5027 34.188 29.185C34.3072 29.1056 34.4263 29.0659 34.5851 29.0262C34.8234 28.9468 35.1013 28.9865 35.3396 29.0659C35.5778 29.185 35.6969 29.4233 35.9352 29.5424C36.0543 29.6218 36.2528 29.5424 36.2925 29.3836C36.2925 28.7482 35.3396 28.3909 34.8234 28.3909Z" fill="#C4311D"/>
<path d="M13.9375 32.7589C12.786 32.3618 11.8727 33.1162 9.80789 33.2751C7.74309 33.4339 6.39303 32.9574 6.15478 33.3545C5.55917 34.3075 7.58426 36.5311 10.4829 36.5311C13.4213 36.5708 15.1287 33.1956 13.9375 32.7589Z" fill="white"/>
<g opacity="0.2">
<path opacity="0.2" d="M13.8576 43.9167C14.0561 44.3932 14.2944 44.8299 14.612 45.227C14.8106 45.227 14.9694 45.227 15.1679 45.227C15.565 45.227 15.9621 45.227 16.3989 45.1873C21.4417 44.8299 25.9287 41.7724 28.6685 37.1267C28.7082 37.0869 28.7082 37.0472 28.748 37.0075C28.9862 36.6105 29.1847 36.2531 29.3833 35.8163C29.1053 35.3001 28.7877 34.8633 28.3906 34.4662C27.0405 33.1559 25.0551 32.6397 23.1889 32.7588C21.3226 32.8779 19.5358 33.6721 17.9872 34.7045C16.4783 35.6972 15.1282 37.0075 14.2944 38.6355C13.4208 40.3033 13.1826 42.2489 13.8576 43.9167Z" fill="#EC372F"/>
<path opacity="0.2" d="M0.158569 31.8059C0.158569 31.8456 0.158569 31.8456 0.158569 31.8853C0.198277 32.3221 0.277692 32.7192 0.3174 33.156C0.873307 36.6899 2.10424 39.7077 4.447 41.8122L4.4867 41.8519C4.32787 40.1445 4.04992 38.3974 3.53372 36.7694C2.8984 34.8237 1.78658 32.9971 0.158569 31.8059Z" fill="#EC372F"/>
</g>
<path d="M14.0961 27.9939C14.0564 28.9469 14.5328 29.7013 15.1285 29.741C15.7241 29.7807 16.2403 29.0263 16.28 28.0733C16.3197 27.1203 15.8432 26.3659 15.2476 26.3262C14.652 26.3262 14.1358 27.0806 14.0961 27.9939Z" fill="black"/>
<path d="M3.93096 27.4777C3.89126 28.2719 4.28833 28.9072 4.76483 28.9072C5.24132 28.9072 5.6781 28.3116 5.6781 27.5174C5.71781 26.7233 5.32073 26.0879 4.84424 26.0879C4.36775 26.0482 3.97067 26.6836 3.93096 27.4777Z" fill="black"/>
<path d="M16.9154 21.5215C16.1213 20.3303 15.0492 19.139 13.7388 18.7022C13.2623 18.5434 12.7461 18.5434 12.3888 18.9008C12.0711 19.1787 11.952 19.6552 12.0314 20.0523C12.2299 21.045 13.1829 21.4024 14.0168 21.72C14.5727 21.9186 15.0889 22.1568 15.5654 22.3951C15.8433 22.5539 17.6302 23.7451 17.5508 22.7524C17.5508 22.5936 17.4713 22.4745 17.3919 22.3553C17.2728 22.0774 17.114 21.7994 16.9154 21.5215Z" fill="black"/>
<path d="M2.93826 20.8068C2.89855 20.8862 2.81914 21.0053 2.85884 21.1244C2.89855 21.9583 4.40744 21.1244 4.64569 21.045C5.08247 20.8862 5.55897 20.767 6.03546 20.6479C6.7899 20.4891 7.62376 20.2906 7.66347 19.4567C7.70318 19.0993 7.54435 18.7022 7.22669 18.4243C6.82961 18.0669 6.35312 18.0272 5.95604 18.1066C4.80452 18.3052 3.93095 19.2184 3.33534 20.1317C3.17651 20.37 3.05738 20.5685 2.93826 20.8068Z" fill="black"/>
<path d="M8.57678 29.0263C8.57678 28.6292 8.49736 28.2718 8.41795 27.8748C8.33853 27.5174 8.1797 27.16 8.02087 26.8027C7.94145 26.6438 7.82233 26.485 7.74292 26.3262C7.62379 26.1673 7.50467 25.9688 7.30613 25.8894C7.10759 25.81 6.94876 25.9291 6.98847 26.1276C7.02818 26.3262 7.18701 26.5247 7.26642 26.6835C7.34584 26.8424 7.46496 27.0012 7.54438 27.1997C7.70321 27.5571 7.82233 27.9145 7.90174 28.3115C7.98116 28.7086 8.02087 29.1454 8.02087 29.5425C8.02087 29.7013 8.02087 29.8999 7.78262 29.8999C7.58408 29.8999 7.38555 29.7807 7.22672 29.7013C6.59139 29.4234 5.79724 29.5425 5.43987 30.1778C5.0825 30.7734 5.32075 31.5279 5.87666 31.8852C5.99578 31.9646 6.15461 31.7661 6.03549 31.647C5.51929 31.1308 5.71782 30.1778 6.47227 30.0984C6.82964 30.0587 7.1473 30.3366 7.46496 30.416C7.82233 30.4955 8.21941 30.4558 8.41795 30.0984C8.61648 29.8204 8.57678 29.3837 8.57678 29.0263Z" fill="#C4311D"/>
</svg>
