<svg width="50" height="48" viewBox="0 0 50 48" fill="none" xmlns="http://www.w3.org/2000/svg">
<path d="M3.02557 38.5889C4.93154 40.7331 7.98903 42.2817 12.8334 42.9567C13.2701 43.0361 13.7466 43.0759 14.2231 43.1156C20.6161 43.7509 26.4134 40.6934 29.7488 35.4917C31.2974 33.0695 32.3298 30.1709 32.6078 26.9545C33.5608 16.432 26.2943 6.74336 16.4468 5.71096C6.51984 4.63885 1.0799 11.5877 0.206327 23.4603C0.087204 25.2868 -0.0319189 27.0737 0.00778875 28.7414C0.0872041 32.6724 0.762234 36.0873 3.02557 38.5889Z" fill="#FFBB9A"/>
<path d="M16.6451 17.2259C16.6845 17.1865 16.6845 17.1471 16.6451 17.2259V17.2259Z" fill="#FF5560"/>
<path d="M37.5886 17.7388C38.9387 17.58 40.2888 17.9374 41.5197 18.4933C43.2271 19.2874 44.8948 20.6375 45.1728 22.5435C45.4905 24.6083 44.0213 26.5142 43.3463 28.4996C43.1874 28.9364 43.0683 29.4129 43.1874 29.8894C43.386 30.7629 44.2595 31.2791 44.9743 31.7953C46.8008 33.066 48.2303 34.8925 49.0244 36.9573C49.3818 37.8706 49.6201 38.8633 49.223 39.7766C48.8656 40.6104 48.0318 41.1663 47.1582 41.4046C46.2846 41.6428 45.3713 41.6031 44.4581 41.6031C45.4508 42.0796 46.5626 42.1987 47.5156 42.7546C48.4685 43.2708 49.223 44.4621 48.7862 45.4548C48.548 45.9313 48.1112 46.2886 47.6347 46.5269C44.1007 48.5123 39.3358 47.8769 36.4371 45.0577C36.04 44.6606 35.643 44.1841 35.643 43.6282C35.6033 43.0723 36.1592 42.4767 36.6754 42.6355C37.1519 42.7944 37.3107 43.5091 37.0327 43.9459C36.7548 44.3827 36.2386 44.6209 35.7224 44.74C33.4988 45.3754 30.878 44.7797 29.4486 43.0326C27.9794 41.2458 28.0588 38.2677 29.8456 36.8382C30.3618 36.4411 30.9575 36.1632 31.4737 35.7661C31.9899 35.369 32.4266 34.7734 32.4266 34.1381C32.3869 33.1057 31.2751 32.4704 30.7192 31.5968C29.8059 30.207 30.4016 28.3408 31.2751 26.9113C32.1487 25.5215 33.3002 24.1715 33.5782 22.5435C33.7767 21.4316 33.5782 20.3992 34.3326 19.486C35.1665 18.533 36.3577 17.8977 37.5886 17.7388Z" fill="#FF5540"/>
<path opacity="0.44" d="M32.2681 33.384C33.102 33.5032 34.0152 33.3443 34.8094 33.1855C38.0654 32.5105 41.0435 30.8825 43.148 28.3015C43.3862 28.0235 43.5848 27.7456 43.7833 27.4676C44.4981 25.8396 45.451 24.2513 45.2128 22.5041C44.9348 20.6379 43.2671 19.2481 41.5597 18.454C40.3288 17.8981 38.9787 17.5407 37.6286 17.6995C36.3977 17.8186 35.2065 18.454 34.4123 19.4467C33.6579 20.3599 33.8564 21.3923 33.6579 22.5041C33.3799 24.1322 32.2284 25.4425 31.3548 26.872C30.4813 28.2618 29.8856 30.1677 30.7989 31.5575C31.196 32.2325 31.9107 32.7487 32.2681 33.384Z" fill="#B22E2E"/>
<path d="M39.5171 11.7862C39.2789 11.2303 39.0406 10.6744 38.7627 10.1582C37.77 8.33162 36.3405 6.7036 34.7919 5.35354C34.1169 4.75793 33.4021 4.24173 32.6477 3.72553C27.4857 0.350378 21.0133 -0.721729 14.9381 0.469501C12.4365 0.945993 10.0143 1.85927 7.79069 3.12991C6.99654 3.60641 6.20239 4.12261 5.44794 4.67851C4.65379 5.27413 3.85963 5.94916 3.1449 6.7036C1.87425 8.05366 0.762437 9.56255 0.285945 11.3494C-0.0317165 12.62 -0.0317164 14.4466 0.683021 15.6775C4.1773 15.3599 7.71128 15.5187 11.1658 15.9555C11.6423 16.0349 12.1585 16.1143 12.635 16.1937C12.635 15.8761 12.5953 15.5584 12.5953 15.2805C12.5159 14.0892 12.6747 12.8583 12.9924 11.7068C12.8733 12.5009 12.8733 13.2951 12.9527 14.0495C13.0321 14.7643 13.2306 15.479 13.5086 16.1937C13.5483 16.2731 13.6277 16.2334 13.6277 16.154C13.1512 14.6054 13.0321 12.9377 13.3101 11.3494C13.3895 10.9126 13.5086 10.5155 13.6277 10.0788C13.7071 9.91992 13.7865 9.72138 13.9057 9.56255C13.4689 10.9523 13.1512 14.5657 14.1042 16.432C14.9778 16.6305 15.8116 16.8291 16.6455 17.107C16.9632 16.5114 16.8837 16.0746 16.6852 15.4393C16.1293 13.851 15.8911 12.3024 16.169 10.6347C16.2881 9.8008 16.5661 9.04635 16.8837 8.29191C16.9235 8.21249 16.9632 8.13308 17.0029 8.09337C16.9235 8.60957 16.8043 9.12577 16.7249 9.64197C16.6455 10.317 16.6058 10.992 16.6058 11.7068C16.6058 13.0171 16.8043 14.3672 17.3602 15.5187C18.075 17.0673 18.9485 17.8217 20.0604 18.4174C20.3383 18.5365 20.6163 18.6556 20.8942 18.7747C21.2913 18.9336 21.7281 19.0924 22.2046 19.2512C24.1105 19.8865 26.0562 21.5543 26.7312 23.5396C27.0886 24.6118 26.7312 25.8427 26.6915 26.9148C26.6518 27.9472 26.493 28.9399 27.6445 29.0193C28.796 29.0987 29.4711 26.7957 31.4962 26.8354C33.5213 26.9148 33.6404 29.059 34.911 28.5825C35.6655 28.3046 36.2611 27.3516 36.7376 26.7957C40.351 22.7852 41.5819 16.8688 39.5171 11.7862Z" fill="#FF5540"/>
<path d="M5.13015 7.18001C5.24927 8.01387 6.40079 8.13299 7.19495 7.93445C9.81565 7.29913 12.1584 5.67111 14.8188 5.11521C15.9306 4.87696 17.2013 4.87696 18.1146 5.5917C19.0278 6.30644 19.6234 7.77562 20.775 7.6565C21.172 7.61679 21.5294 7.37854 21.9265 7.29913C22.7603 7.18001 23.5148 7.93445 23.7927 8.7286C24.1104 9.52276 24.0707 10.436 24.3089 11.2699C24.706 12.8185 25.8178 14.1288 27.2473 14.7245C28.2003 15.1215 29.4312 15.1612 30.1857 14.4068C31.2975 13.295 30.8607 11.1905 31.9725 10.0787C32.8858 9.12568 34.4344 9.36393 35.5859 9.95954C36.4198 10.3963 37.3728 11.0316 38.2463 10.5949C38.4846 10.4757 38.6434 10.3169 38.8022 10.1184C37.8095 8.29182 36.3801 6.66381 34.8315 5.31375C34.1564 4.71813 33.4417 4.20193 32.6873 3.68573C32.6475 3.72544 32.5681 3.76515 32.5284 3.80486C31.6151 4.44018 31.099 5.71082 30.0268 5.86965C29.2724 6.02848 28.5974 5.5917 28.0812 5.11521C27.565 4.59901 27.1282 4.00339 26.5326 3.64602C25.3811 2.93129 23.8722 3.24895 22.6015 3.80486C21.8471 4.12252 20.9338 4.44018 20.3382 3.88427C20.1396 3.68573 20.0205 3.36807 19.8617 3.12983C19.4249 2.33567 18.4719 1.89889 17.5984 2.05772C17.0822 2.13713 16.566 2.4548 16.0498 2.4945C14.5409 2.65333 15.1762 1.34298 14.9379 0.548828C12.4364 1.02532 10.0142 1.9386 7.79056 3.20924C6.87729 4.08281 6.08313 5.0755 5.44781 6.14761C5.24927 6.46527 5.09044 6.78293 5.13015 7.18001Z" fill="#FF5560"/>
<path d="M37.1345 26.2795C37.7698 26.6368 38.286 27.1928 38.564 28.0663C38.8816 29.0193 38.8419 30.012 38.6037 30.8856C38.0875 32.8312 36.7374 34.3401 34.9903 35.1343C33.5211 35.8093 31.0989 36.2461 29.7886 34.6181C29.193 33.9033 29.1136 32.9107 29.193 32.0371C29.3915 30.1311 29.9474 27.8678 31.496 26.8354C32.8858 25.9221 35.4271 25.2868 37.1345 26.2795Z" fill="#FFBB9A"/>
<path d="M31.8136 31.4416C32.0518 30.8062 32.3298 30.2503 32.7666 29.7738C33.2431 29.2974 33.7593 28.9003 34.3946 28.6223C35.0299 28.3444 35.7844 28.2252 36.4594 28.4238C36.7771 28.5032 37.055 28.662 37.2932 28.9003C37.4918 29.0988 37.8095 29.4562 37.73 29.7738C37.6903 29.9724 37.4918 30.0518 37.333 29.9724C37.1344 29.893 36.9756 29.615 36.8168 29.4959C36.6182 29.3371 36.4197 29.2179 36.1814 29.1385C36.0226 29.0988 35.9035 29.0591 35.7447 29.0591C35.9432 29.4562 36.0623 29.893 36.0226 30.3695C35.9829 30.6474 35.9035 30.9254 35.7844 31.1636C35.7049 31.2827 35.6255 31.4416 35.5064 31.521C35.4667 31.5607 35.427 31.6401 35.3476 31.6798C35.2682 31.7592 35.1887 31.7592 35.0696 31.7989C34.9108 31.8386 34.752 31.6401 34.7917 31.4813C34.8314 31.4019 34.8314 31.3224 34.8711 31.2827C34.9108 31.243 34.9505 31.2033 34.9902 31.1239C35.0696 31.0445 35.1093 30.9651 35.149 30.8857C35.2682 30.6871 35.3476 30.4886 35.3476 30.2503C35.3873 29.8533 35.3079 29.4562 35.149 29.0988C34.8711 29.1385 34.5931 29.2576 34.3549 29.3768C33.4416 29.8136 32.5283 30.6474 32.0915 31.6004C32.0518 31.8386 31.7342 31.6798 31.8136 31.4416Z" fill="#C4311D"/>
<g opacity="0.2">
<path opacity="0.2" d="M12.5954 42.401C12.6748 42.5995 12.7145 42.7981 12.794 42.9966C13.2307 43.076 13.7072 43.1157 14.1837 43.1554C20.5767 43.7908 26.374 40.7333 29.7094 35.5316C29.5109 35.1345 29.2726 34.7374 28.955 34.38C27.6446 32.7917 25.5401 31.9182 23.515 31.799C21.4899 31.6799 19.4648 32.2755 17.678 33.2285C15.9706 34.1021 14.422 35.333 13.3896 36.9213C12.4366 38.4699 11.9998 40.5347 12.5954 42.401Z" fill="#EC372F"/>
<path opacity="0.2" d="M3.02572 38.589C2.9463 36.8815 2.74776 35.1741 2.31098 33.4667C1.87419 31.7989 1.11975 30.1312 0.00793457 28.7415C0.0873499 32.6725 0.76238 36.0874 3.02572 38.589Z" fill="#EC372F"/>
</g>
<path d="M12.4762 30.0517C11.4438 29.4958 10.4908 30.2105 8.50544 30.1311C6.55976 30.0517 5.36853 29.4164 5.05087 29.7738C4.33613 30.687 5.84502 33.1886 8.54514 33.546C11.285 33.8637 13.5086 30.6076 12.4762 30.0517Z" fill="#B22E2E"/>
<path d="M9.93514 31.1634C8.94245 31.6002 7.94976 32.2355 7.19531 33.1488C7.59239 33.3474 8.06888 33.4665 8.58508 33.5459C10.7293 33.8239 12.5161 31.8782 12.7544 30.7664C11.9205 30.409 10.6499 30.8458 9.93514 31.1634Z" fill="#FF582C"/>
<path d="M8.38639 23.3013C8.26726 23.1424 8.02902 23.1424 7.9496 23.3013C7.75106 23.6189 7.79077 24.1748 7.79077 24.5322C7.79077 24.969 7.79077 25.3661 7.79077 25.8028C7.79077 26.0411 7.79077 26.2793 7.79077 26.4779C7.79077 26.597 7.83048 26.8749 7.75106 26.9544C7.63194 27.1132 7.27457 26.9941 7.11574 26.9146C6.79808 26.7955 6.44071 26.597 6.08334 26.6367C5.76568 26.6764 5.48773 26.8749 5.40831 27.1926C5.28919 27.55 5.48773 27.9073 5.60685 28.2647C5.76568 28.6221 6.00393 28.9794 6.28188 29.2574C6.401 29.3765 6.52013 29.2177 6.48042 29.0986C6.3613 28.7015 6.20247 28.3441 6.08334 27.947C6.04363 27.8279 5.96422 27.5897 6.04364 27.4706C6.12305 27.3911 6.24217 27.3911 6.3613 27.4308C6.67896 27.4706 6.99662 27.7088 7.31428 27.7882C7.59223 27.8676 7.90989 27.8279 8.14814 27.7088C8.78346 27.3514 8.62463 26.3984 8.62463 25.7234C8.62463 25.3263 8.62463 24.9293 8.62463 24.4925C8.58492 24.1351 8.62463 23.6189 8.38639 23.3013Z" fill="#C4311D"/>
<path d="M13.1912 25.5249C13.1514 26.4779 13.6279 27.2324 14.2236 27.2721C14.8192 27.3118 15.3354 26.5573 15.3751 25.6043C15.4545 24.6514 14.978 23.8572 14.3824 23.8572C13.7471 23.8175 13.2309 24.5719 13.1912 25.5249Z" fill="black"/>
<path d="M3.02594 24.9691C2.98623 25.7633 3.3833 26.3986 3.8598 26.3986C4.33629 26.3986 4.77307 25.803 4.77307 25.0088C4.81278 24.2147 4.4157 23.5793 3.93921 23.5793C3.46272 23.5793 3.06564 24.2147 3.02594 24.9691Z" fill="black"/>
<path d="M15.5338 21.5938C15.5338 21.5144 15.5338 21.4747 15.4941 21.3953C15.4147 20.7997 15.0176 20.2835 14.5808 19.8864C14.2632 19.6085 13.8264 19.3305 13.3499 19.1717C13.072 19.0923 12.7543 19.0128 12.4366 18.9334C12.119 18.8937 11.6028 18.8143 11.2851 19.0128C11.0866 19.132 11.0469 19.4893 11.4042 19.6085C11.7616 19.7673 12.119 19.7276 12.3969 19.7673C12.6749 19.807 12.9528 19.8467 13.2308 19.9261C14.2235 20.2041 14.9382 20.8791 15.2956 21.5938C15.3353 21.6733 15.375 21.713 15.4147 21.7527C15.5338 21.8321 15.5338 21.7527 15.5338 21.5938Z" fill="#FF5540"/>
<path d="M3.18469 20.7998C3.18469 20.7204 3.18469 20.6807 3.2244 20.6013C3.34352 20.0056 3.66119 19.5292 4.01855 19.2115C4.29651 18.9732 4.61417 18.7747 4.97154 18.6556C5.17007 18.6159 5.40832 18.5762 5.64657 18.5762C5.88481 18.5762 6.28189 18.5762 6.48043 18.8144C6.59955 18.9732 6.59955 19.2909 6.3613 19.41C6.08335 19.4894 5.84511 19.4497 5.60686 19.4497C5.36861 19.4497 5.17007 19.4497 4.97154 19.4894C4.21709 19.6086 3.66118 20.1645 3.34352 20.8395C3.30382 20.9189 3.26411 20.9586 3.26411 20.9983C3.18469 21.038 3.18469 20.9189 3.18469 20.7998Z" fill="#FF5540"/>
</svg>
